# xmcd
#
# Track frame offsets:
#	150
#	18217
#	30360
#	54557
#	69187
#	87020
#	105335
#	117370
#	132660
#	145792
#	159322
#	177890
#	191757
#	209385
#
# Disc length: 3084 seconds
#
# Revision: 2
# Processed by: cddbd v1.5.1PL0 Copyright (c) Steve Scherf et al.
# Submitted via: MusicWizard 7.2.0
#
DISCID=b20c0a0e
DTITLE=Various Artist - FAB14: Country Heartbreakers
DYEAR=2001
DGENRE=Country
TTITLE0=Keith Whitley - To Be Loved By A Woman
TTITLE1=Rosie Flores - Tremolo
TTITLE2=Jimmie Dale Gilmore - Goodbye Ole Missoula
TTITLE3=Heather Myles and Merle Haggard - No One Is Gonna Love You Better
TTITLE4=Dick Curless - No One Will Ever Know
TTITLE5=Alison Krauss and Union Station - Ghost In This House
TTITLE6=Sonny Burgess - Hang Up The Moon
TTITLE7=Wylie and The Wild West - Heaven
TTITLE8=The Woodys - A Hundred Years Of Solitude
TTITLE9=The Vidalias - Tokens Of Affiction
TTITLE10=D.L. Mennard - Wedding Bells
TTITLE11=Rhonda Vincent - Out Of Hand
TTITLE12=Dale Watson - England To Texas
TTITLE13=The Burns Sisters - In This World
EXTD=
EXTT0=
EXTT1=
EXTT2=
EXTT3=
EXTT4=
EXTT5=
EXTT6=
EXTT7=
EXTT8=
EXTT9=
EXTT10=
EXTT11=
EXTT12=
EXTT13=
PLAYORDER=
